<svg xmlns="http://www.w3.org/2000/svg" xmlns:xlink="http://www.w3.org/1999/xlink" xmlns:s="https://github.com/nturley/netlistsvg" width="379" height="538"><style>svg {
  stroke:#000;
  fill:none;
}
text {
  fill:#000;
  stroke:none;
  font-size:10px;
  font-weight: bold;
  font-family: "Courier New", monospace;
}
line {
    stroke-linecap: round;
}
.nodelabel {
  text-anchor: middle;
}
.inputPortLabel {
  text-anchor: end;
}
.splitjoinBody {
  fill:#000;
}</style><g s:type="not" transform="translate(298,122)" s:width="30" s:height="20" id="cell_$auto$proc_dff.cc:220:proc_dff$12"><s:alias val="$_NOT_"/><s:alias val="$not"/><s:alias val="$logic_not"/><path d="M0,0 L0,20 L20,10 Z" fill="#eebaff" class="cell_$auto$proc_dff.cc:220:proc_dff$12"/><circle cx="24" cy="10" r="3" fill="#eebaff" class="cell_$auto$proc_dff.cc:220:proc_dff$12"/><g s:x="-1" s:y="10" s:pid="A"/><g s:x="27" s:y="10" s:pid="Y"/></g><g s:type="not" transform="translate(298,12)" s:width="30" s:height="20" id="cell_$auto$proc_dff.cc:220:proc_dff$7"><s:alias val="$_NOT_"/><s:alias val="$not"/><s:alias val="$logic_not"/><path d="M0,0 L0,20 L20,10 Z" fill="#eebaff" class="cell_$auto$proc_dff.cc:220:proc_dff$7"/><circle cx="24" cy="10" r="3" fill="#eebaff" class="cell_$auto$proc_dff.cc:220:proc_dff$7"/><g s:x="-1" s:y="10" s:pid="A"/><g s:x="27" s:y="10" s:pid="Y"/></g><g s:type="not" transform="translate(298,177)" s:width="30" s:height="20" id="cell_$not$/home/noname/Documents/project_tiny/Sort_on_FPGA/Version1/02_rtl/PA_CAL_MEAN/PACS_detect_intit_data.sv:13$2"><s:alias val="$_NOT_"/><s:alias val="$not"/><s:alias val="$logic_not"/><path d="M0,0 L0,20 L20,10 Z" fill="#eebaff" class="cell_$not$/home/noname/Documents/project_tiny/Sort_on_FPGA/Version1/02_rtl/PA_CAL_MEAN/PACS_detect_intit_data.sv:13$2"/><circle cx="24" cy="10" r="3" fill="#eebaff" class="cell_$not$/home/noname/Documents/project_tiny/Sort_on_FPGA/Version1/02_rtl/PA_CAL_MEAN/PACS_detect_intit_data.sv:13$2"/><g s:x="-1" s:y="10" s:pid="A"/><g s:x="27" s:y="10" s:pid="Y"/></g><g s:type="not" transform="translate(298,67)" s:width="30" s:height="20" id="cell_$not$/home/noname/Documents/project_tiny/Sort_on_FPGA/Version1/02_rtl/PA_CAL_MEAN/PACS_detect_intit_data.sv:21$6"><s:alias val="$_NOT_"/><s:alias val="$not"/><s:alias val="$logic_not"/><path d="M0,0 L0,20 L20,10 Z" fill="#eebaff" class="cell_$not$/home/noname/Documents/project_tiny/Sort_on_FPGA/Version1/02_rtl/PA_CAL_MEAN/PACS_detect_intit_data.sv:21$6"/><circle cx="24" cy="10" r="3" fill="#eebaff" class="cell_$not$/home/noname/Documents/project_tiny/Sort_on_FPGA/Version1/02_rtl/PA_CAL_MEAN/PACS_detect_intit_data.sv:21$6"/><g s:x="-1" s:y="10" s:pid="A"/><g s:x="27" s:y="10" s:pid="Y"/></g><g s:type="generic" transform="translate(119,241.5)" s:width="30" s:height="40" id="cell_$procdff$11"><text x="15" y="-4" class="nodelabel cell_$procdff$11" s:attribute="ref">$adff</text><rect width="30" height="60" s:generic="body" fill="#ffae46" rx="0" class="cell_$procdff$11"/><g transform="translate(0,10)" s:x="0" s:y="10" s:pid="in0" id="port_$procdff$11~ARST"><text x="-3" y="-4" class="inputPortLabel cell_$procdff$11">ARST</text></g><g transform="translate(0,30)" s:x="0" s:y="10" s:pid="in0" id="port_$procdff$11~CLK"><text x="-3" y="-4" class="inputPortLabel cell_$procdff$11">CLK</text></g><g transform="translate(0,50)" s:x="0" s:y="10" s:pid="in0" id="port_$procdff$11~D"><text x="-3" y="-4" class="inputPortLabel cell_$procdff$11">D</text></g><g transform="translate(30,10)" s:x="30" s:y="10" s:pid="out0" id="port_$procdff$11~Q"><text x="5" y="-4" style="fill:#000; stroke:none" class="cell_$procdff$11">Q</text></g></g><g s:type="generic" transform="translate(119,410.5)" s:width="30" s:height="40" id="cell_$procdff$16"><text x="15" y="-4" class="nodelabel cell_$procdff$16" s:attribute="ref">$adff</text><rect width="30" height="60" s:generic="body" fill="#ffae46" rx="0" class="cell_$procdff$16"/><g transform="translate(0,10)" s:x="0" s:y="10" s:pid="in0" id="port_$procdff$16~ARST"><text x="-3" y="-4" class="inputPortLabel cell_$procdff$16">ARST</text></g><g transform="translate(0,30)" s:x="0" s:y="10" s:pid="in0" id="port_$procdff$16~CLK"><text x="-3" y="-4" class="inputPortLabel cell_$procdff$16">CLK</text></g><g transform="translate(0,50)" s:x="0" s:y="10" s:pid="in0" id="port_$procdff$16~D"><text x="-3" y="-4" class="inputPortLabel cell_$procdff$16">D</text></g><g transform="translate(30,10)" s:x="30" s:y="10" s:pid="out0" id="port_$procdff$16~Q"><text x="5" y="-4" style="fill:#000; stroke:none" class="cell_$procdff$16">Q</text></g></g><g s:type="mux" transform="translate(227.33333333333334,325.5)" s:width="20" s:height="40" id="cell_$ternary$/home/noname/Documents/project_tiny/Sort_on_FPGA/Version1/02_rtl/PA_CAL_MEAN/PACS_detect_intit_data.sv:19$3"><s:alias val="$pmux"/><s:alias val="$mux"/><s:alias val="$_MUX_"/><path d="M0,0 L20,10 L20,30 L0,40 Z" fill="#ffffff" class="cell_$ternary$/home/noname/Documents/project_tiny/Sort_on_FPGA/Version1/02_rtl/PA_CAL_MEAN/PACS_detect_intit_data.sv:19$3"/><text x="5" y="32" class="nodelabel cell_$ternary$/home/noname/Documents/project_tiny/Sort_on_FPGA/Version1/02_rtl/PA_CAL_MEAN/PACS_detect_intit_data.sv:19$3" s:attribute="">1</text><text x="5" y="13" class="nodelabel cell_$ternary$/home/noname/Documents/project_tiny/Sort_on_FPGA/Version1/02_rtl/PA_CAL_MEAN/PACS_detect_intit_data.sv:19$3" s:attribute="">0</text><g s:x="0" s:y="10" s:pid="A"/><g s:x="0" s:y="30" s:pid="B"/><g s:x="10" s:y="35" s:pid="S"/><g s:x="20" s:y="20" s:pid="Y"/></g><g s:type="mux" transform="translate(298,335.5)" s:width="20" s:height="40" id="cell_$ternary$/home/noname/Documents/project_tiny/Sort_on_FPGA/Version1/02_rtl/PA_CAL_MEAN/PACS_detect_intit_data.sv:19$4"><s:alias val="$pmux"/><s:alias val="$mux"/><s:alias val="$_MUX_"/><path d="M0,0 L20,10 L20,30 L0,40 Z" fill="#ffffff" class="cell_$ternary$/home/noname/Documents/project_tiny/Sort_on_FPGA/Version1/02_rtl/PA_CAL_MEAN/PACS_detect_intit_data.sv:19$4"/><text x="5" y="32" class="nodelabel cell_$ternary$/home/noname/Documents/project_tiny/Sort_on_FPGA/Version1/02_rtl/PA_CAL_MEAN/PACS_detect_intit_data.sv:19$4" s:attribute="">1</text><text x="5" y="13" class="nodelabel cell_$ternary$/home/noname/Documents/project_tiny/Sort_on_FPGA/Version1/02_rtl/PA_CAL_MEAN/PACS_detect_intit_data.sv:19$4" s:attribute="">0</text><g s:x="0" s:y="10" s:pid="A"/><g s:x="0" s:y="30" s:pid="B"/><g s:x="10" s:y="35" s:pid="S"/><g s:x="20" s:y="20" s:pid="Y"/></g><g s:type="inputExt" transform="translate(12,262)" s:width="30" s:height="20" id="cell_i_clk"><text x="15" y="-4" class="nodelabel cell_i_clk" s:attribute="ref">i_clk</text><s:alias val="$_inputExt_"/><path d="M0,0 L0,20 L15,20 L30,10 L15,0 Z" fill="#8bcaff" class="cell_i_clk"/><g s:x="30" s:y="10" s:pid="Y"/></g><g s:type="inputExt" transform="translate(12,67)" s:width="30" s:height="20" id="cell_i_rst_n"><text x="15" y="-4" class="nodelabel cell_i_rst_n" s:attribute="ref">i_rst_n</text><s:alias val="$_inputExt_"/><path d="M0,0 L0,20 L15,20 L30,10 L15,0 Z" fill="#8bcaff" class="cell_i_rst_n"/><g s:x="30" s:y="10" s:pid="Y"/></g><g s:type="inputExt" transform="translate(220,506)" s:width="30" s:height="20" id="cell_i_start"><text x="15" y="-4" class="nodelabel cell_i_start" s:attribute="ref">i_start</text><s:alias val="$_inputExt_"/><path d="M0,0 L0,20 L15,20 L30,10 L15,0 Z" fill="#8bcaff" class="cell_i_start"/><g s:x="30" s:y="10" s:pid="Y"/></g><g s:type="inputExt" transform="translate(12,451)" s:width="30" s:height="20" id="cell_i_valid"><text x="15" y="-4" class="nodelabel cell_i_valid" s:attribute="ref">i_valid</text><s:alias val="$_inputExt_"/><path d="M0,0 L0,20 L15,20 L30,10 L15,0 Z" fill="#8bcaff" class="cell_i_valid"/><g s:x="30" s:y="10" s:pid="Y"/></g><g s:type="outputExt" transform="translate(297,242)" s:width="30" s:height="20" id="cell_o_init_sum"><text x="15" y="-4" class="nodelabel cell_o_init_sum" s:attribute="ref">o_init_sum</text><s:alias val="$_outputExt_"/><path d="M30,0 L30,20 L15,20 L0,10 L15,0 Z" fill="#169300" class="cell_o_init_sum"/><g s:x="0" s:y="10" s:pid="A"/></g><g s:type="constant" transform="translate(119,345.5)" s:width="30" s:height="20" id="cell_0"><text x="15" y="-4" class="nodelabel cell_0" s:attribute="ref">0</text><s:alias val="$_constant_"/><rect width="30" height="20" fill="#745bff" class="cell_0"/><g s:x="31" s:y="10" s:pid="Y"/></g><g s:type="constant" transform="translate(220,441)" s:width="30" s:height="20" id="cell_1"><text x="15" y="-4" class="nodelabel cell_1" s:attribute="ref">1</text><s:alias val="$_constant_"/><rect width="30" height="20" fill="#745bff" class="cell_1"/><g s:x="31" s:y="10" s:pid="Y"/></g><line x1="42" x2="272" y1="77" y2="77" class="net_3 width_1" style="stroke-width: 1"/><line x1="272" x2="272" y1="77" y2="132" class="net_3 width_1" style="stroke-width: 1"/><circle cx="272" cy="132" r="2" style="fill:#000" class="net_3 width_1"/><line x1="272" x2="297" y1="132" y2="132" class="net_3 width_1" style="stroke-width: 1"/><line x1="42" x2="272" y1="77" y2="77" class="net_3 width_1" style="stroke-width: 1"/><line x1="272" x2="272" y1="77" y2="22" class="net_3 width_1" style="stroke-width: 1"/><circle cx="272" cy="77" r="2" style="fill:#000" class="net_3 width_1"/><line x1="272" x2="297" y1="22" y2="22" class="net_3 width_1" style="stroke-width: 1"/><line x1="42" x2="272" y1="77" y2="77" class="net_3 width_1" style="stroke-width: 1"/><line x1="272" x2="272" y1="77" y2="187" class="net_3 width_1" style="stroke-width: 1"/><line x1="272" x2="297" y1="187" y2="187" class="net_3 width_1" style="stroke-width: 1"/><line x1="42" x2="297" y1="77" y2="77" class="net_3 width_1" style="stroke-width: 1"/><line x1="42" x2="74" y1="77" y2="77" class="net_3 width_1" style="stroke-width: 1"/><line x1="74" x2="74" y1="77" y2="252" class="net_3 width_1" style="stroke-width: 1"/><circle cx="74" cy="77" r="2" style="fill:#000" class="net_3 width_1"/><circle cx="74" cy="252" r="2" style="fill:#000" class="net_3 width_1"/><line x1="74" x2="119" y1="252" y2="252" class="net_3 width_1" style="stroke-width: 1"/><line x1="42" x2="74" y1="77" y2="77" class="net_3 width_1" style="stroke-width: 1"/><line x1="74" x2="74" y1="77" y2="421" class="net_3 width_1" style="stroke-width: 1"/><line x1="74" x2="119" y1="421" y2="421" class="net_3 width_1" style="stroke-width: 1"/><line x1="42" x2="118" y1="272" y2="272" class="net_2 width_1" style="stroke-width: 1"/><line x1="42" x2="64" y1="272" y2="272" class="net_2 width_1" style="stroke-width: 1"/><line x1="64" x2="64" y1="272" y2="441" class="net_2 width_1" style="stroke-width: 1"/><circle cx="64" cy="272" r="2" style="fill:#000" class="net_2 width_1"/><line x1="64" x2="118" y1="441" y2="441" class="net_2 width_1" style="stroke-width: 1"/><line x1="318" x2="367" y1="355.5" y2="355.5" class="net_11 width_1" style="stroke-width: 1"/><line x1="367" x2="367" y1="355.5" y2="314.5" class="net_11 width_1" style="stroke-width: 1"/><line x1="367" x2="84" y1="314.5" y2="314.5" class="net_11 width_1" style="stroke-width: 1"/><line x1="84" x2="84" y1="314.5" y2="292" class="net_11 width_1" style="stroke-width: 1"/><line x1="84" x2="118" y1="292" y2="292" class="net_11 width_1" style="stroke-width: 1"/><line x1="42" x2="118" y1="461" y2="461" class="net_5 width_1" style="stroke-width: 1"/><line x1="150" x2="195" y1="252" y2="252" class="net_6 width_1" style="stroke-width: 1"/><line x1="195" x2="195" y1="252" y2="335.5" class="net_6 width_1" style="stroke-width: 1"/><circle cx="195" cy="252" r="2" style="fill:#000" class="net_6 width_1"/><line x1="195" x2="227.33333333333334" y1="335.5" y2="335.5" class="net_6 width_1" style="stroke-width: 1"/><line x1="150" x2="297" y1="252" y2="252" class="net_6 width_1" style="stroke-width: 1"/><line x1="150" x2="227.33333333333334" y1="355.5" y2="355.5" class="net_14 width_1" style="stroke-width: 1"/><line x1="150" x2="237.33333333333334" y1="421" y2="421" class="net_12 width_1" style="stroke-width: 1"/><line x1="237.33333333333334" x2="237.33333333333334" y1="421" y2="360.5" class="net_12 width_1" style="stroke-width: 1"/><line x1="247.33333333333334" x2="298" y1="345.5" y2="345.5" class="net_13 width_1" style="stroke-width: 1"/><line x1="251" x2="272" y1="451" y2="451" class="net_15 width_1" style="stroke-width: 1"/><line x1="272" x2="272" y1="451" y2="365.5" class="net_15 width_1" style="stroke-width: 1"/><line x1="272" x2="298" y1="365.5" y2="365.5" class="net_15 width_1" style="stroke-width: 1"/><line x1="250" x2="308" y1="516" y2="516" class="net_4 width_1" style="stroke-width: 1"/><line x1="308" x2="308" y1="516" y2="370.5" class="net_4 width_1" style="stroke-width: 1"/></svg>